<?xml version="1.0" encoding="UTF-8" standalone="no"?>
<!-- Created with Inkscape (http://www.inkscape.org/) -->

<svg
   width="210mm"
   height="297mm"
   viewBox="0 0 210 297"
   version="1.1"
   id="svg9400"
   inkscape:version="1.2.2 (732a01da63, 2022-12-09)"
   sodipodi:docname="candy.svg"
   inkscape:export-filename="candy.png"
   inkscape:export-xdpi="28.256432"
   inkscape:export-ydpi="28.256432"
   xmlns:inkscape="http://www.inkscape.org/namespaces/inkscape"
   xmlns:sodipodi="http://sodipodi.sourceforge.net/DTD/sodipodi-0.dtd"
   xmlns="http://www.w3.org/2000/svg"
   xmlns:svg="http://www.w3.org/2000/svg">
  <sodipodi:namedview
     id="namedview9402"
     pagecolor="#ffffff"
     bordercolor="#666666"
     borderopacity="1.0"
     inkscape:showpageshadow="2"
     inkscape:pageopacity="0.0"
     inkscape:pagecheckerboard="0"
     inkscape:deskcolor="#d1d1d1"
     inkscape:document-units="mm"
     showgrid="false"
     inkscape:zoom="0.84096521"
     inkscape:cx="412.02656"
     inkscape:cy="337.70719"
     inkscape:window-width="1366"
     inkscape:window-height="705"
     inkscape:window-x="-8"
     inkscape:window-y="-8"
     inkscape:window-maximized="1"
     inkscape:current-layer="layer1" />
  <defs
     id="defs9397" />
  <g
     inkscape:label="Layer 1"
     inkscape:groupmode="layer"
     id="layer1">
    <path
       sodipodi:type="star"
       style="opacity:0.97;fill:#ff8080;fill-rule:evenodd;stroke:#4d4d4d;stroke-width:0;stroke-linejoin:round"
       id="path9898"
       inkscape:flatsided="false"
       sodipodi:sides="3"
       sodipodi:cx="86.83474"
       sodipodi:cy="53.485168"
       sodipodi:r1="13.232697"
       sodipodi:r2="10.108916"
       sodipodi:arg1="0.49555167"
       sodipodi:arg2="1.5427492"
       inkscape:rounded="0.09"
       inkscape:randomized="0"
       d="m 98.475629,59.777541 c -0.512713,0.948519 -10.279603,3.782331 -11.3574,3.812568 -1.077798,0.03024 -10.988204,-2.251539 -11.553288,-3.169821 -0.565085,-0.918282 1.864206,-10.793562 2.376919,-11.742081 0.512713,-0.948519 7.443992,-8.390294 8.52179,-8.420531 1.077797,-0.03024 8.415395,7.011232 8.98048,7.929514 0.565085,0.918281 3.544212,10.641832 3.031499,11.590351 z"
       inkscape:transform-center-x="0.78087622"
       inkscape:transform-center-y="0.35027051"
       transform="matrix(0.39646942,0.31143824,-0.31143824,0.39646942,68.290648,67.844115)" />
    <g
       id="g9915"
       transform="matrix(0.39832645,0.30905956,-0.30905956,0.39832645,69.171453,58.105729)"
       style="fill:#ff6f6f;fill-opacity:1">
      <g
         id="g9920"
         transform="rotate(169.22135,96.844963,69.807817)"
         style="fill:#ff6f6f;fill-opacity:1">
        <path
           sodipodi:type="star"
           style="opacity:0.97;fill:#ff6f6f;fill-opacity:1;fill-rule:evenodd;stroke:#4d4d4d;stroke-width:0;stroke-linejoin:round"
           id="path9906"
           inkscape:flatsided="false"
           sodipodi:sides="3"
           sodipodi:cx="86.83474"
           sodipodi:cy="53.485168"
           sodipodi:r1="13.232697"
           sodipodi:r2="10.108916"
           sodipodi:arg1="0.49555167"
           sodipodi:arg2="1.5427492"
           inkscape:rounded="0.09"
           inkscape:randomized="0"
           d="m 98.475629,59.777541 c -0.512713,0.948519 -10.279603,3.782331 -11.3574,3.812568 -1.077798,0.03024 -10.988204,-2.251539 -11.553288,-3.169821 -0.565085,-0.918282 1.864206,-10.793562 2.376919,-11.742081 0.512713,-0.948519 7.443992,-8.390294 8.52179,-8.420531 1.077797,-0.03024 8.415395,7.011232 8.98048,7.929514 0.565085,0.918281 3.544212,10.641832 3.031499,11.590351 z"
           inkscape:transform-center-x="0.028742859"
           inkscape:transform-center-y="1.1985051"
           transform="matrix(-0.12141237,0.00799592,-0.00126412,-0.76796789,106.53454,109.01484)" />
        <path
           sodipodi:type="star"
           style="opacity:0.97;fill:#ff6f6f;fill-opacity:1;fill-rule:evenodd;stroke:#4d4d4d;stroke-width:0;stroke-linejoin:round"
           id="path9908"
           inkscape:flatsided="false"
           sodipodi:sides="3"
           sodipodi:cx="86.83474"
           sodipodi:cy="53.485168"
           sodipodi:r1="13.232697"
           sodipodi:r2="10.108916"
           sodipodi:arg1="0.49555167"
           sodipodi:arg2="1.5427492"
           inkscape:rounded="0.09"
           inkscape:randomized="0"
           d="m 98.475629,59.777541 c -0.512713,0.948519 -10.279603,3.782331 -11.3574,3.812568 -1.077798,0.03024 -10.988204,-2.251539 -11.553288,-3.169821 -0.565085,-0.918282 1.864206,-10.793562 2.376919,-11.742081 0.512713,-0.948519 7.443992,-8.390294 8.52179,-8.420531 1.077797,-0.03024 8.415395,7.011232 8.98048,7.929514 0.565085,0.918281 3.544212,10.641832 3.031499,11.590351 z"
           inkscape:transform-center-x="-0.30637674"
           inkscape:transform-center-y="0.92314565"
           transform="matrix(-0.06616105,0.05214445,-0.2121999,-0.59386827,109.81494,97.023228)" />
        <path
           sodipodi:type="star"
           style="opacity:0.97;fill:#ff6f6f;fill-opacity:1;fill-rule:evenodd;stroke:#4d4d4d;stroke-width:0;stroke-linejoin:round"
           id="path9910"
           inkscape:flatsided="false"
           sodipodi:sides="3"
           sodipodi:cx="86.83474"
           sodipodi:cy="53.485168"
           sodipodi:r1="13.232697"
           sodipodi:r2="10.108916"
           sodipodi:arg1="0.49555167"
           sodipodi:arg2="1.5427492"
           inkscape:rounded="0.09"
           inkscape:randomized="0"
           d="m 98.475629,59.777541 c -0.512713,0.948519 -10.279603,3.782331 -11.3574,3.812568 -1.077798,0.03024 -10.988204,-2.251539 -11.553288,-3.169821 -0.565085,-0.918282 1.864206,-10.793562 2.376919,-11.742081 0.512713,-0.948519 7.443992,-8.390294 8.52179,-8.420531 1.077797,-0.03024 8.415395,7.011232 8.98048,7.929514 0.565085,0.918281 3.544212,10.641832 3.031499,11.590351 z"
           inkscape:transform-center-x="0.47577549"
           inkscape:transform-center-y="0.86249489"
           transform="matrix(-0.08696709,-0.05028179,0.33869251,-0.55123615,89.656202,104.69308)" />
      </g>
    </g>
    <path
       id="path9896"
       style="opacity:0.97;fill:#ff8080;fill-rule:evenodd;stroke:#4d4d4d;stroke-width:0;stroke-linejoin:round"
       inkscape:transform-center-x="-1.1716691"
       inkscape:transform-center-y="-0.79909307"
       d="m 104.07512,83.248039 c 0.49506,-0.224527 4.46955,2.712563 4.91152,3.029038 0.44199,0.316468 4.53669,3.157256 4.48361,3.698259 -0.0531,0.540996 -4.03943,3.76547 -4.5345,3.989997 -0.49507,0.224527 -5.5471,1.099249 -5.98908,0.782774 -0.44198,-0.316476 -1.24127,-5.380987 -1.18819,-5.92199 0.0531,-0.541002 1.82157,-5.35355 2.31664,-5.578078 z"
       sodipodi:nodetypes="sssssss" />
    <g
       id="g9925"
       style="fill:#ff7373;fill-opacity:1"
       transform="matrix(0.39832645,0.30905956,-0.30905956,0.39832645,88.582219,33.28713)">
      <path
         sodipodi:type="star"
         style="opacity:0.97;fill:#ff7373;fill-opacity:1;fill-rule:evenodd;stroke:#4d4d4d;stroke-width:0;stroke-linejoin:round"
         id="path9900"
         inkscape:flatsided="false"
         sodipodi:sides="3"
         sodipodi:cx="86.83474"
         sodipodi:cy="53.485168"
         sodipodi:r1="13.232697"
         sodipodi:r2="10.108916"
         sodipodi:arg1="0.49555167"
         sodipodi:arg2="1.5427492"
         inkscape:rounded="0.09"
         inkscape:randomized="0"
         d="m 98.475629,59.777541 c -0.512713,0.948519 -10.279603,3.782331 -11.3574,3.812568 -1.077798,0.03024 -10.988204,-2.251539 -11.553288,-3.169821 -0.565085,-0.918282 1.864206,-10.793562 2.376919,-11.742081 0.512713,-0.948519 7.443992,-8.390294 8.52179,-8.420531 1.077797,-0.03024 8.415395,7.011232 8.98048,7.929514 0.565085,0.918281 3.544212,10.641832 3.031499,11.590351 z"
         inkscape:transform-center-x="0.028742859"
         inkscape:transform-center-y="1.1985051"
         transform="matrix(-0.12141237,0.00799592,-0.00126412,-0.76796789,106.53454,109.01484)" />
      <path
         sodipodi:type="star"
         style="opacity:0.97;fill:#ff7373;fill-opacity:1;fill-rule:evenodd;stroke:#4d4d4d;stroke-width:0;stroke-linejoin:round"
         id="path9902"
         inkscape:flatsided="false"
         sodipodi:sides="3"
         sodipodi:cx="86.83474"
         sodipodi:cy="53.485168"
         sodipodi:r1="13.232697"
         sodipodi:r2="10.108916"
         sodipodi:arg1="0.49555167"
         sodipodi:arg2="1.5427492"
         inkscape:rounded="0.09"
         inkscape:randomized="0"
         d="m 98.475629,59.777541 c -0.512713,0.948519 -10.279603,3.782331 -11.3574,3.812568 -1.077798,0.03024 -10.988204,-2.251539 -11.553288,-3.169821 -0.565085,-0.918282 1.864206,-10.793562 2.376919,-11.742081 0.512713,-0.948519 7.443992,-8.390294 8.52179,-8.420531 1.077797,-0.03024 8.415395,7.011232 8.98048,7.929514 0.565085,0.918281 3.544212,10.641832 3.031499,11.590351 z"
         inkscape:transform-center-x="-0.30637674"
         inkscape:transform-center-y="0.92314565"
         transform="matrix(-0.06616105,0.05214445,-0.2121999,-0.59386827,109.81494,97.023228)" />
      <path
         sodipodi:type="star"
         style="opacity:0.97;fill:#ff7373;fill-opacity:1;fill-rule:evenodd;stroke:#4d4d4d;stroke-width:0;stroke-linejoin:round"
         id="path9904"
         inkscape:flatsided="false"
         sodipodi:sides="3"
         sodipodi:cx="86.83474"
         sodipodi:cy="53.485168"
         sodipodi:r1="13.232697"
         sodipodi:r2="10.108916"
         sodipodi:arg1="0.49555167"
         sodipodi:arg2="1.5427492"
         inkscape:rounded="0.09"
         inkscape:randomized="0"
         d="m 98.475629,59.777541 c -0.512713,0.948519 -10.279603,3.782331 -11.3574,3.812568 -1.077798,0.03024 -10.988204,-2.251539 -11.553288,-3.169821 -0.565085,-0.918282 1.864206,-10.793562 2.376919,-11.742081 0.512713,-0.948519 7.443992,-8.390294 8.52179,-8.420531 1.077797,-0.03024 8.415395,7.011232 8.98048,7.929514 0.565085,0.918281 3.544212,10.641832 3.031499,11.590351 z"
         inkscape:transform-center-x="0.47577549"
         inkscape:transform-center-y="0.86249489"
         transform="matrix(-0.08696709,-0.05028179,0.33869251,-0.55123615,89.656202,104.69308)" />
    </g>
    <ellipse
       style="opacity:0.97;fill:#ffaaaa;fill-rule:evenodd;stroke:#4d4d4d;stroke-width:0;stroke-linejoin:round"
       id="path9573"
       cx="139.03758"
       cy="22.055948"
       rx="9.0413132"
       ry="13.324039"
       transform="rotate(37.807713)" />
    <path
       id="rect9731"
       style="opacity:0.97;fill:#ff8080;fill-rule:evenodd;stroke:#4d4d4d;stroke-width:0;stroke-linejoin:round"
       d="m 92.263514,93.966279 13.407836,10.657711 -1.8718,3.15459 -14.286581,-11.08489 z"
       sodipodi:nodetypes="ccccc" />
    <path
       id="rect9785"
       style="opacity:0.97;fill:#ff8080;fill-rule:evenodd;stroke:#4d4d4d;stroke-width:0;stroke-linejoin:round"
       d="m 88.007335,99.298977 13.642655,10.585273 c 1.13612,-0.4232 -1.33667,1.94478 -2.654575,2.24366 l -12.630443,-9.93957 c 0.873733,-2.302493 1.601519,-3.441563 1.642363,-2.889363 z"
       sodipodi:nodetypes="ccccc" />
    <path
       id="rect9787"
       style="opacity:0.97;fill:#ff7c7c;fill-opacity:1;fill-rule:evenodd;stroke:#4d4d4d;stroke-width:0;stroke-linejoin:round"
       d="m 97.780735,91.083439 9.417795,7.552523 -0.46729,3.082898 -12.060116,-9.379606 z"
       sodipodi:nodetypes="ccccc" />
    <path
       id="rect9789"
       style="opacity:0.97;fill:#ff8080;fill-rule:evenodd;stroke:#4d4d4d;stroke-width:0;stroke-linejoin:round"
       d="m 85.692924,104.65168 11.308188,8.82207 -3.411994,1.00587 -8.060403,-6.49828 z"
       sodipodi:nodetypes="ccccc" />
    <ellipse
       style="opacity:0.97;fill:#ffaaaa;fill-opacity:0.707746;fill-rule:evenodd;stroke:#4d4d4d;stroke-width:0;stroke-linejoin:round"
       id="ellipse9927"
       cx="136.49222"
       cy="22.055948"
       rx="6.3503809"
       ry="11.187564"
       transform="rotate(37.807713)" />
  </g>
</svg>
