<?xml version="1.0" encoding="UTF-8" standalone="no"?>
<!-- Created with Inkscape (http://www.inkscape.org/) -->

<svg
   width="210mm"
   height="297mm"
   viewBox="0 0 210 297"
   version="1.1"
   id="svg8914"
   inkscape:version="1.2.2 (732a01da63, 2022-12-09)"
   sodipodi:docname="platform.svg"
   inkscape:export-filename="platform.png"
   inkscape:export-xdpi="97.85775"
   inkscape:export-ydpi="97.85775"
   xmlns:inkscape="http://www.inkscape.org/namespaces/inkscape"
   xmlns:sodipodi="http://sodipodi.sourceforge.net/DTD/sodipodi-0.dtd"
   xmlns="http://www.w3.org/2000/svg"
   xmlns:svg="http://www.w3.org/2000/svg">
  <sodipodi:namedview
     id="namedview8916"
     pagecolor="#ffffff"
     bordercolor="#666666"
     borderopacity="1.0"
     inkscape:showpageshadow="2"
     inkscape:pageopacity="0.0"
     inkscape:pagecheckerboard="0"
     inkscape:deskcolor="#d1d1d1"
     inkscape:document-units="mm"
     showgrid="false"
     inkscape:zoom="1.1893044"
     inkscape:cx="282.09767"
     inkscape:cy="482.63506"
     inkscape:window-width="1366"
     inkscape:window-height="705"
     inkscape:window-x="-8"
     inkscape:window-y="-8"
     inkscape:window-maximized="1"
     inkscape:current-layer="layer1" />
  <defs
     id="defs8911" />
  <g
     inkscape:label="Layer 1"
     inkscape:groupmode="layer"
     id="layer1">
    <path
       sodipodi:type="star"
       style="opacity:0.97;fill:#decd87;fill-rule:evenodd;stroke:#4d4d4d;stroke-width:0;stroke-linejoin:round"
       id="path9261"
       inkscape:flatsided="false"
       sodipodi:sides="4"
       sodipodi:cx="70.002647"
       sodipodi:cy="122.85858"
       sodipodi:r1="4.7843761"
       sodipodi:r2="3.6549509"
       sodipodi:arg1="1.0924439"
       sodipodi:arg2="2.0052706"
       inkscape:rounded="0.09"
       inkscape:randomized="0"
       d="m 72.204978,127.10593 c -0.32582,0.11928 -3.410084,-0.82711 -3.740822,-0.93197 -0.251249,-0.0797 -2.618254,-0.86554 -2.70886,-1.11305 -0.119273,-0.32582 0.82711,-3.41008 0.931977,-3.74082 0.07966,-0.25125 0.865531,-2.61825 1.113044,-2.70886 0.32582,-0.11927 3.410084,0.82711 3.740822,0.93198 0.251248,0.0797 2.618253,0.86553 2.70886,1.11304 0.119273,0.32582 -0.82711,3.41008 -0.931977,3.74082 -0.07966,0.25125 -0.865532,2.61826 -1.113044,2.70886 z"
       inkscape:transform-center-x="0.20950945"
       inkscape:transform-center-y="0.021256458"
       transform="matrix(0.20143015,0,0,0.20143015,67.667716,80.904768)" />
    <rect
       style="opacity:0.97;fill:#deaa87;fill-rule:evenodd;stroke:#4d4d4d;stroke-width:0;stroke-linejoin:round"
       id="rect9087"
       width="103.82417"
       height="4.9804945"
       x="47.822033"
       y="102.30431" />
    <rect
       style="opacity:0.97;fill:#66ff00;fill-rule:evenodd;stroke:#4d4d4d;stroke-width:0;stroke-linejoin:round"
       id="rect9089"
       width="103.82417"
       height="1.9155748"
       x="47.822033"
       y="102.30431" />
    <path
       sodipodi:type="star"
       style="opacity:0.97;fill:#decd87;fill-rule:evenodd;stroke:#4d4d4d;stroke-width:0;stroke-linejoin:round"
       id="path9197"
       inkscape:flatsided="false"
       sodipodi:sides="4"
       sodipodi:cx="70.002647"
       sodipodi:cy="122.85858"
       sodipodi:r1="4.7843761"
       sodipodi:r2="3.6549509"
       sodipodi:arg1="1.0924439"
       sodipodi:arg2="2.0052706"
       inkscape:rounded="0.09"
       inkscape:randomized="0"
       d="m 72.204978,127.10593 c -0.32582,0.11928 -3.410084,-0.82711 -3.740822,-0.93197 -0.251249,-0.0797 -2.618254,-0.86554 -2.70886,-1.11305 -0.119273,-0.32582 0.82711,-3.41008 0.931977,-3.74082 0.07966,-0.25125 0.865531,-2.61825 1.113044,-2.70886 0.32582,-0.11927 3.410084,0.82711 3.740822,0.93198 0.251248,0.0797 2.618253,0.86553 2.70886,1.11304 0.119273,0.32582 -0.82711,3.41008 -0.931977,3.74082 -0.07966,0.25125 -0.865532,2.61826 -1.113044,2.70886 z"
       inkscape:transform-center-x="0.20950945"
       inkscape:transform-center-y="0.021256458"
       transform="matrix(0.20143015,0,0,0.20143015,67.667716,80.904768)" />
    <path
       sodipodi:type="star"
       style="opacity:0.97;fill:#decd87;fill-rule:evenodd;stroke:#4d4d4d;stroke-width:0;stroke-linejoin:round"
       id="path9251"
       inkscape:flatsided="false"
       sodipodi:sides="4"
       sodipodi:cx="70.002647"
       sodipodi:cy="122.85858"
       sodipodi:r1="4.7843761"
       sodipodi:r2="3.6549509"
       sodipodi:arg1="1.0924439"
       sodipodi:arg2="2.0052706"
       inkscape:rounded="0.09"
       inkscape:randomized="0"
       d="m 72.204978,127.10593 c -0.32582,0.11928 -3.410084,-0.82711 -3.740822,-0.93197 -0.251249,-0.0797 -2.618254,-0.86554 -2.70886,-1.11305 -0.119273,-0.32582 0.82711,-3.41008 0.931977,-3.74082 0.07966,-0.25125 0.865531,-2.61825 1.113044,-2.70886 0.32582,-0.11927 3.410084,0.82711 3.740822,0.93198 0.251248,0.0797 2.618253,0.86553 2.70886,1.11304 0.119273,0.32582 -0.82711,3.41008 -0.931977,3.74082 -0.07966,0.25125 -0.865532,2.61826 -1.113044,2.70886 z"
       inkscape:transform-center-x="0.20950949"
       inkscape:transform-center-y="0.021255733"
       transform="matrix(0.20143015,0,0,0.20143015,37.055655,81.762402)" />
    <path
       sodipodi:type="star"
       style="opacity:0.97;fill:#decd87;fill-rule:evenodd;stroke:#4d4d4d;stroke-width:0;stroke-linejoin:round"
       id="path9253"
       inkscape:flatsided="false"
       sodipodi:sides="4"
       sodipodi:cx="70.002647"
       sodipodi:cy="122.85858"
       sodipodi:r1="4.7843761"
       sodipodi:r2="3.6549509"
       sodipodi:arg1="1.0924439"
       sodipodi:arg2="2.0052706"
       inkscape:rounded="0.09"
       inkscape:randomized="0"
       d="m 72.204978,127.10593 c -0.32582,0.11928 -3.410084,-0.82711 -3.740822,-0.93197 -0.251249,-0.0797 -2.618254,-0.86554 -2.70886,-1.11305 -0.119273,-0.32582 0.82711,-3.41008 0.931977,-3.74082 0.07966,-0.25125 0.865531,-2.61825 1.113044,-2.70886 0.32582,-0.11927 3.410084,0.82711 3.740822,0.93198 0.251248,0.0797 2.618253,0.86553 2.70886,1.11304 0.119273,0.32582 -0.82711,3.41008 -0.931977,3.74082 -0.07966,0.25125 -0.865532,2.61826 -1.113044,2.70886 z"
       inkscape:transform-center-x="0.20950928"
       inkscape:transform-center-y="0.021256458"
       transform="matrix(0.20143015,0,0,0.20143015,63.062362,80.904768)" />
    <path
       sodipodi:type="star"
       style="opacity:0.97;fill:#decd87;fill-rule:evenodd;stroke:#4d4d4d;stroke-width:0;stroke-linejoin:round"
       id="path9255"
       inkscape:flatsided="false"
       sodipodi:sides="4"
       sodipodi:cx="70.002647"
       sodipodi:cy="122.85858"
       sodipodi:r1="4.7843761"
       sodipodi:r2="3.6549509"
       sodipodi:arg1="1.0924439"
       sodipodi:arg2="2.0052706"
       inkscape:rounded="0.09"
       inkscape:randomized="0"
       d="m 72.204978,127.10593 c -0.32582,0.11928 -3.410084,-0.82711 -3.740822,-0.93197 -0.251249,-0.0797 -2.618254,-0.86554 -2.70886,-1.11305 -0.119273,-0.32582 0.82711,-3.41008 0.931977,-3.74082 0.07966,-0.25125 0.865531,-2.61825 1.113044,-2.70886 0.32582,-0.11927 3.410084,0.82711 3.740822,0.93198 0.251248,0.0797 2.618253,0.86553 2.70886,1.11304 0.119273,0.32582 -0.82711,3.41008 -0.931977,3.74082 -0.07966,0.25125 -0.865532,2.61826 -1.113044,2.70886 z"
       inkscape:transform-center-x="0.20950944"
       inkscape:transform-center-y="0.021256458"
       transform="matrix(0.20143015,0,0,0.20143015,55.206169,80.904768)" />
    <path
       sodipodi:type="star"
       style="opacity:0.97;fill:#decd87;fill-rule:evenodd;stroke:#4d4d4d;stroke-width:0;stroke-linejoin:round"
       id="path9257"
       inkscape:flatsided="false"
       sodipodi:sides="4"
       sodipodi:cx="70.002647"
       sodipodi:cy="122.85858"
       sodipodi:r1="4.7843761"
       sodipodi:r2="3.6549509"
       sodipodi:arg1="1.0924439"
       sodipodi:arg2="2.0052706"
       inkscape:rounded="0.09"
       inkscape:randomized="0"
       d="m 72.204978,127.10593 c -0.32582,0.11928 -3.410084,-0.82711 -3.740822,-0.93197 -0.251249,-0.0797 -2.618254,-0.86554 -2.70886,-1.11305 -0.119273,-0.32582 0.82711,-3.41008 0.931977,-3.74082 0.07966,-0.25125 0.865531,-2.61825 1.113044,-2.70886 0.32582,-0.11927 3.410084,0.82711 3.740822,0.93198 0.251248,0.0797 2.618253,0.86553 2.70886,1.11304 0.119273,0.32582 -0.82711,3.41008 -0.931977,3.74082 -0.07966,0.25125 -0.865532,2.61826 -1.113044,2.70886 z"
       inkscape:transform-center-x="0.20950907"
       inkscape:transform-center-y="0.021256458"
       transform="matrix(0.20143015,0,0,0.20143015,133.90355,80.904768)" />
    <path
       sodipodi:type="star"
       style="opacity:0.97;fill:#decd87;fill-rule:evenodd;stroke:#4d4d4d;stroke-width:0;stroke-linejoin:round"
       id="path9259"
       inkscape:flatsided="false"
       sodipodi:sides="4"
       sodipodi:cx="70.002647"
       sodipodi:cy="122.85858"
       sodipodi:r1="4.7843761"
       sodipodi:r2="3.6549509"
       sodipodi:arg1="1.0924439"
       sodipodi:arg2="2.0052706"
       inkscape:rounded="0.09"
       inkscape:randomized="0"
       d="m 72.204978,127.10593 c -0.32582,0.11928 -3.410084,-0.82711 -3.740822,-0.93197 -0.251249,-0.0797 -2.618254,-0.86554 -2.70886,-1.11305 -0.119273,-0.32582 0.82711,-3.41008 0.931977,-3.74082 0.07966,-0.25125 0.865531,-2.61825 1.113044,-2.70886 0.32582,-0.11927 3.410084,0.82711 3.740822,0.93198 0.251248,0.0797 2.618253,0.86553 2.70886,1.11304 0.119273,0.32582 -0.82711,3.41008 -0.931977,3.74082 -0.07966,0.25125 -0.865532,2.61826 -1.113044,2.70886 z"
       inkscape:transform-center-x="0.20950497"
       inkscape:transform-center-y="0.021256297"
       transform="matrix(0.20143015,0,0,0.20143015,124.75185,81.440216)" />
    <path
       sodipodi:type="star"
       style="opacity:0.97;fill:#decd87;fill-rule:evenodd;stroke:#4d4d4d;stroke-width:0;stroke-linejoin:round"
       id="path9263"
       inkscape:flatsided="false"
       sodipodi:sides="4"
       sodipodi:cx="70.002647"
       sodipodi:cy="122.85858"
       sodipodi:r1="4.7843761"
       sodipodi:r2="3.6549509"
       sodipodi:arg1="1.0924439"
       sodipodi:arg2="2.0052706"
       inkscape:rounded="0.09"
       inkscape:randomized="0"
       d="m 72.204978,127.10593 c -0.32582,0.11928 -3.410084,-0.82711 -3.740822,-0.93197 -0.251249,-0.0797 -2.618254,-0.86554 -2.70886,-1.11305 -0.119273,-0.32582 0.82711,-3.41008 0.931977,-3.74082 0.07966,-0.25125 0.865531,-2.61825 1.113044,-2.70886 0.32582,-0.11927 3.410084,0.82711 3.740822,0.93198 0.251248,0.0797 2.618253,0.86553 2.70886,1.11304 0.119273,0.32582 -0.82711,3.41008 -0.931977,3.74082 -0.07966,0.25125 -0.865532,2.61826 -1.113044,2.70886 z"
       inkscape:transform-center-x="0.20950943"
       inkscape:transform-center-y="0.021255894"
       transform="matrix(0.20143015,0,0,0.20143015,73.144887,81.226954)" />
    <path
       sodipodi:type="star"
       style="opacity:0.97;fill:#decd87;fill-rule:evenodd;stroke:#4d4d4d;stroke-width:0;stroke-linejoin:round"
       id="path9265"
       inkscape:flatsided="false"
       sodipodi:sides="4"
       sodipodi:cx="70.002647"
       sodipodi:cy="122.85858"
       sodipodi:r1="4.7843761"
       sodipodi:r2="3.6549509"
       sodipodi:arg1="1.0924439"
       sodipodi:arg2="2.0052706"
       inkscape:rounded="0.09"
       inkscape:randomized="0"
       d="m 72.204978,127.10593 c -0.32582,0.11928 -3.410084,-0.82711 -3.740822,-0.93197 -0.251249,-0.0797 -2.618254,-0.86554 -2.70886,-1.11305 -0.119273,-0.32582 0.82711,-3.41008 0.931977,-3.74082 0.07966,-0.25125 0.865531,-2.61825 1.113044,-2.70886 0.32582,-0.11927 3.410084,0.82711 3.740822,0.93198 0.251248,0.0797 2.618253,0.86553 2.70886,1.11304 0.119273,0.32582 -0.82711,3.41008 -0.931977,3.74082 -0.07966,0.25125 -0.865532,2.61826 -1.113044,2.70886 z"
       inkscape:transform-center-x="0.20950943"
       inkscape:transform-center-y="0.021256458"
       transform="matrix(0.20143015,0,0,0.20143015,42.744622,80.904768)" />
    <path
       sodipodi:type="star"
       style="opacity:0.97;fill:#decd87;fill-rule:evenodd;stroke:#4d4d4d;stroke-width:0;stroke-linejoin:round"
       id="path9267"
       inkscape:flatsided="false"
       sodipodi:sides="4"
       sodipodi:cx="70.002647"
       sodipodi:cy="122.85858"
       sodipodi:r1="4.7843761"
       sodipodi:r2="3.6549509"
       sodipodi:arg1="1.0924439"
       sodipodi:arg2="2.0052706"
       inkscape:rounded="0.09"
       inkscape:randomized="0"
       d="m 72.204978,127.10593 c -0.32582,0.11928 -3.410084,-0.82711 -3.740822,-0.93197 -0.251249,-0.0797 -2.618254,-0.86554 -2.70886,-1.11305 -0.119273,-0.32582 0.82711,-3.41008 0.931977,-3.74082 0.07966,-0.25125 0.865531,-2.61825 1.113044,-2.70886 0.32582,-0.11927 3.410084,0.82711 3.740822,0.93198 0.251248,0.0797 2.618253,0.86553 2.70886,1.11304 0.119273,0.32582 -0.82711,3.41008 -0.931977,3.74082 -0.07966,0.25125 -0.865532,2.61826 -1.113044,2.70886 z"
       inkscape:transform-center-x="0.20950944"
       inkscape:transform-center-y="0.021255894"
       transform="matrix(0.20143015,0,0,0.20143015,83.777043,81.226954)" />
    <path
       sodipodi:type="star"
       style="opacity:0.97;fill:#decd87;fill-rule:evenodd;stroke:#4d4d4d;stroke-width:0;stroke-linejoin:round"
       id="path9269"
       inkscape:flatsided="false"
       sodipodi:sides="4"
       sodipodi:cx="70.002647"
       sodipodi:cy="122.85858"
       sodipodi:r1="4.7843761"
       sodipodi:r2="3.6549509"
       sodipodi:arg1="1.0924439"
       sodipodi:arg2="2.0052706"
       inkscape:rounded="0.09"
       inkscape:randomized="0"
       d="m 72.204978,127.10593 c -0.32582,0.11928 -3.410084,-0.82711 -3.740822,-0.93197 -0.251249,-0.0797 -2.618254,-0.86554 -2.70886,-1.11305 -0.119273,-0.32582 0.82711,-3.41008 0.931977,-3.74082 0.07966,-0.25125 0.865531,-2.61825 1.113044,-2.70886 0.32582,-0.11927 3.410084,0.82711 3.740822,0.93198 0.251248,0.0797 2.618253,0.86553 2.70886,1.11304 0.119273,0.32582 -0.82711,3.41008 -0.931977,3.74082 -0.07966,0.25125 -0.865532,2.61826 -1.113044,2.70886 z"
       inkscape:transform-center-x="0.20950977"
       inkscape:transform-center-y="0.021255894"
       transform="matrix(0.20143015,0,0,0.20143015,77.333312,81.226954)" />
    <path
       sodipodi:type="star"
       style="opacity:0.97;fill:#decd87;fill-rule:evenodd;stroke:#4d4d4d;stroke-width:0;stroke-linejoin:round"
       id="path9271"
       inkscape:flatsided="false"
       sodipodi:sides="4"
       sodipodi:cx="70.002647"
       sodipodi:cy="122.85858"
       sodipodi:r1="4.7843761"
       sodipodi:r2="3.6549509"
       sodipodi:arg1="1.0924439"
       sodipodi:arg2="2.0052706"
       inkscape:rounded="0.09"
       inkscape:randomized="0"
       d="m 72.204978,127.10593 c -0.32582,0.11928 -3.410084,-0.82711 -3.740822,-0.93197 -0.251249,-0.0797 -2.618254,-0.86554 -2.70886,-1.11305 -0.119273,-0.32582 0.82711,-3.41008 0.931977,-3.74082 0.07966,-0.25125 0.865531,-2.61825 1.113044,-2.70886 0.32582,-0.11927 3.410084,0.82711 3.740822,0.93198 0.251248,0.0797 2.618253,0.86553 2.70886,1.11304 0.119273,0.32582 -0.82711,3.41008 -0.931977,3.74082 -0.07966,0.25125 -0.865532,2.61826 -1.113044,2.70886 z"
       inkscape:transform-center-x="0.20951083"
       inkscape:transform-center-y="0.021256426"
       transform="matrix(0.20143015,0,0,0.20143015,129.58467,80.795843)" />
    <path
       sodipodi:type="star"
       style="opacity:0.97;fill:#decd87;fill-rule:evenodd;stroke:#4d4d4d;stroke-width:0;stroke-linejoin:round"
       id="path9273"
       inkscape:flatsided="false"
       sodipodi:sides="4"
       sodipodi:cx="70.002647"
       sodipodi:cy="122.85858"
       sodipodi:r1="4.7843761"
       sodipodi:r2="3.6549509"
       sodipodi:arg1="1.0924439"
       sodipodi:arg2="2.0052706"
       inkscape:rounded="0.09"
       inkscape:randomized="0"
       d="m 72.204978,127.10593 c -0.32582,0.11928 -3.410084,-0.82711 -3.740822,-0.93197 -0.251249,-0.0797 -2.618254,-0.86554 -2.70886,-1.11305 -0.119273,-0.32582 0.82711,-3.41008 0.931977,-3.74082 0.07966,-0.25125 0.865531,-2.61825 1.113044,-2.70886 0.32582,-0.11927 3.410084,0.82711 3.740822,0.93198 0.251248,0.0797 2.618253,0.86553 2.70886,1.11304 0.119273,0.32582 -0.82711,3.41008 -0.931977,3.74082 -0.07966,0.25125 -0.865532,2.61826 -1.113044,2.70886 z"
       inkscape:transform-center-x="0.34988815"
       inkscape:transform-center-y="0.021256426"
       transform="matrix(0.33640183,0,0,0.20143015,111.04533,80.795843)" />
    <path
       sodipodi:type="star"
       style="opacity:0.97;fill:#decd87;fill-rule:evenodd;stroke:#4d4d4d;stroke-width:0;stroke-linejoin:round"
       id="path9275"
       inkscape:flatsided="false"
       sodipodi:sides="4"
       sodipodi:cx="70.002647"
       sodipodi:cy="122.85858"
       sodipodi:r1="4.7843761"
       sodipodi:r2="3.6549509"
       sodipodi:arg1="1.0924439"
       sodipodi:arg2="2.0052706"
       inkscape:rounded="0.09"
       inkscape:randomized="0"
       d="m 72.204978,127.10593 c -0.32582,0.11928 -3.410084,-0.82711 -3.740822,-0.93197 -0.251249,-0.0797 -2.618254,-0.86554 -2.70886,-1.11305 -0.119273,-0.32582 0.82711,-3.41008 0.931977,-3.74082 0.07966,-0.25125 0.865531,-2.61825 1.113044,-2.70886 0.32582,-0.11927 3.410084,0.82711 3.740822,0.93198 0.251248,0.0797 2.618253,0.86553 2.70886,1.11304 0.119273,0.32582 -0.82711,3.41008 -0.931977,3.74082 -0.07966,0.25125 -0.865532,2.61826 -1.113044,2.70886 z"
       inkscape:transform-center-x="0.28628312"
       inkscape:transform-center-y="0.20228259"
       transform="matrix(0.28600482,-0.17710854,0.10604877,0.17125351,71.386102,97.19132)" />
    <path
       sodipodi:type="star"
       style="opacity:0.97;fill:#decd87;fill-rule:evenodd;stroke:#4d4d4d;stroke-width:0;stroke-linejoin:round"
       id="path9277"
       inkscape:flatsided="false"
       sodipodi:sides="4"
       sodipodi:cx="70.002647"
       sodipodi:cy="122.85858"
       sodipodi:r1="4.7843761"
       sodipodi:r2="3.6549509"
       sodipodi:arg1="1.0924439"
       sodipodi:arg2="2.0052706"
       inkscape:rounded="0.09"
       inkscape:randomized="0"
       d="m 72.204978,127.10593 c -0.32582,0.11928 -3.410084,-0.82711 -3.740822,-0.93197 -0.251249,-0.0797 -2.618254,-0.86554 -2.70886,-1.11305 -0.119273,-0.32582 0.82711,-3.41008 0.931977,-3.74082 0.07966,-0.25125 0.865531,-2.61825 1.113044,-2.70886 0.32582,-0.11927 3.410084,0.82711 3.740822,0.93198 0.251248,0.0797 2.618253,0.86553 2.70886,1.11304 0.119273,0.32582 -0.82711,3.41008 -0.931977,3.74082 -0.07966,0.25125 -0.865532,2.61826 -1.113044,2.70886 z"
       inkscape:transform-center-x="0.34988855"
       inkscape:transform-center-y="0.021256426"
       transform="matrix(0.33640183,0,0,0.20143015,104.24504,80.795843)" />
    <path
       sodipodi:type="star"
       style="opacity:0.97;fill:#decd87;fill-rule:evenodd;stroke:#4d4d4d;stroke-width:0;stroke-linejoin:round"
       id="path9279"
       inkscape:flatsided="false"
       sodipodi:sides="4"
       sodipodi:cx="70.002647"
       sodipodi:cy="122.85858"
       sodipodi:r1="4.7843761"
       sodipodi:r2="3.6549509"
       sodipodi:arg1="1.0924439"
       sodipodi:arg2="2.0052706"
       inkscape:rounded="0.09"
       inkscape:randomized="0"
       d="m 72.204978,127.10593 c -0.32582,0.11928 -3.410084,-0.82711 -3.740822,-0.93197 -0.251249,-0.0797 -2.618254,-0.86554 -2.70886,-1.11305 -0.119273,-0.32582 0.82711,-3.41008 0.931977,-3.74082 0.07966,-0.25125 0.865531,-2.61825 1.113044,-2.70886 0.32582,-0.11927 3.410084,0.82711 3.740822,0.93198 0.251248,0.0797 2.618253,0.86553 2.70886,1.11304 0.119273,0.32582 -0.82711,3.41008 -0.931977,3.74082 -0.07966,0.25125 -0.865532,2.61826 -1.113044,2.70886 z"
       inkscape:transform-center-x="0.34989311"
       inkscape:transform-center-y="0.021255922"
       transform="matrix(0.33640183,0,0,0.20143015,88.728878,81.085795)" />
    <path
       sodipodi:type="star"
       style="opacity:0.97;fill:#decd87;fill-rule:evenodd;stroke:#4d4d4d;stroke-width:0;stroke-linejoin:round"
       id="path9281"
       inkscape:flatsided="false"
       sodipodi:sides="4"
       sodipodi:cx="70.002647"
       sodipodi:cy="122.85858"
       sodipodi:r1="4.7843761"
       sodipodi:r2="3.6549509"
       sodipodi:arg1="1.0924439"
       sodipodi:arg2="2.0052706"
       inkscape:rounded="0.09"
       inkscape:randomized="0"
       d="m 72.204978,127.10593 c -0.32582,0.11928 -3.410084,-0.82711 -3.740822,-0.93197 -0.251249,-0.0797 -2.618254,-0.86554 -2.70886,-1.11305 -0.119273,-0.32582 0.82711,-3.41008 0.931977,-3.74082 0.07966,-0.25125 0.865531,-2.61825 1.113044,-2.70886 0.32582,-0.11927 3.410084,0.82711 3.740822,0.93198 0.251248,0.0797 2.618253,0.86553 2.70886,1.11304 0.119273,0.32582 -0.82711,3.41008 -0.931977,3.74082 -0.07966,0.25125 -0.865532,2.61826 -1.113044,2.70886 z"
       inkscape:transform-center-x="0.26022302"
       inkscape:transform-center-y="0.23486325"
       transform="matrix(0.26293668,-0.20983444,0.12564433,0.15744081,84.846217,101.07065)" />
    <rect
       style="opacity:0.97;fill:#c8ab37;fill-rule:evenodd;stroke:#4d4d4d;stroke-width:0;stroke-linejoin:round"
       id="rect9335"
       width="0.38311493"
       height="2.2899411"
       x="72.149834"
       y="104.21989" />
    <rect
       style="opacity:0.97;fill:#c8ab37;fill-rule:evenodd;stroke:#4d4d4d;stroke-width:0;stroke-linejoin:round"
       id="rect9337"
       width="3.1623707"
       height="0.31371635"
       x="-43.358166"
       y="-114.81939"
       transform="matrix(0.64336418,-0.76556027,-0.76556027,-0.64336418,0,0)" />
    <rect
       style="opacity:0.97;fill:#c8ab37;fill-rule:evenodd;stroke:#4d4d4d;stroke-width:0;stroke-linejoin:round"
       id="rect9339"
       width="3.1623707"
       height="0.31371635"
       x="-5.6018009"
       y="-159.86777"
       transform="matrix(0.64336418,-0.76556027,-0.76556027,-0.64336418,0,0)" />
    <rect
       style="opacity:0.97;fill:#c8ab37;fill-rule:evenodd;stroke:#4d4d4d;stroke-width:0;stroke-linejoin:round"
       id="rect9341"
       width="3.1623707"
       height="0.31371635"
       x="2.0676732"
       y="-168.99387"
       transform="matrix(0.64336418,-0.76556027,-0.76556027,-0.64336418,0,0)" />
  </g>
</svg>
